<svg width="110" height="48" viewBox="0 0 110 48" fill="none" xmlns="http://www.w3.org/2000/svg">
    <path
        d="M96.5262 2.55113e-05C93.8551 -0.00516625 91.2424 0.782178 89.0189 2.26242C86.7954 3.74266 85.061 5.84925 84.0352 8.31559C83.0094 10.7819 82.7383 13.4972 83.2562 16.1176C83.7741 18.7381 85.0578 21.146 86.9448 23.0366C88.8317 24.9273 91.2372 26.2156 93.8566 26.7387C96.4761 27.2617 99.1918 26.9959 101.66 25.9749C104.128 24.9539 106.238 23.2236 107.723 21.0029C109.208 18.7823 110 16.1712 110 13.5C110.002 11.7289 109.655 9.97478 108.978 8.33782C108.302 6.70086 107.31 5.2131 106.059 3.95951C104.808 2.70592 103.322 1.71104 101.686 1.03167C100.051 0.3523 98.2974 0.00174756 96.5262 2.55113e-05ZM96.5262 20.8207C95.0746 20.8233 93.6549 20.3951 92.4469 19.5902C91.2388 18.7854 90.2968 17.6401 89.7401 16.2995C89.1834 14.9589 89.037 13.4832 89.3196 12.0594C89.6022 10.6355 90.3009 9.32757 91.3273 8.30112C92.3538 7.27468 93.6617 6.57594 95.0856 6.29338C96.5094 6.01082 97.9851 6.15716 99.3257 6.71386C100.666 7.27057 101.812 8.21259 102.616 9.42064C103.421 10.6287 103.85 12.0484 103.847 13.5C103.847 14.4614 103.658 15.4133 103.29 16.3015C102.922 17.1897 102.383 17.9967 101.703 18.6765C101.023 19.3563 100.216 19.8956 99.3277 20.2635C98.4396 20.6314 97.4876 20.8207 96.5262 20.8207Z"
        fill="#04BFBF" />
    <path d="M89 27L96.0055 40L103 27L96.0055 31.8854L89 27Z" fill="#04BFBF" />
    <path
        d="M33.0145 32.2202C34.4155 31.8067 35.8843 31.1176 37.4209 30.1529C38.9575 29.1423 39.9292 28.637 40.336 28.637C40.7427 28.637 40.9461 28.9126 40.9461 29.4639C40.9461 29.9692 40.6297 30.4515 39.997 30.9109C37.6921 32.5647 35.2968 33.828 32.8111 34.7008C31.862 39.1569 29.7379 42.4874 26.4387 44.6924C23.1395 46.8975 19.3658 48 15.1175 48C12.4059 48 10.0106 47.5176 7.93161 46.5529C5.89786 45.5882 4.33866 44.3479 3.25399 42.8319C1.08466 39.8459 0 36.6992 0 33.3916C0 29.1193 0.632721 25.2605 1.89816 21.8151C3.2088 18.3238 4.90359 15.5445 6.98253 13.4773C9.06147 11.3641 11.2986 9.7563 13.6939 8.65378C16.1344 7.55126 18.5975 7 21.0832 7C23.5689 7 25.8512 7.82689 27.9301 9.48067C30.0091 11.0885 31.0485 12.949 31.0485 15.0622C31.0485 15.7513 30.7774 16.3255 30.235 16.7849C29.7379 17.2443 29.1278 17.4739 28.4047 17.4739C27.3652 17.4739 26.6421 16.7389 26.2353 15.2689C25.2411 11.7317 22.8683 9.96303 19.1172 9.96303C15.9536 9.96303 12.8804 11.9613 9.89757 15.958C6.95993 19.9546 5.49112 24.6863 5.49112 30.1529C5.49112 34.0118 6.62097 37.3653 8.88069 40.2134C11.1856 43.0616 14.0554 44.4857 17.4902 44.4857C20.2471 44.4857 22.5972 43.6818 24.5405 42.0739C26.4839 40.4661 27.7267 38.3989 28.2691 35.8723C27.1392 36.102 25.7608 36.2168 24.1338 36.2168C22.5068 36.2168 21.0832 35.8263 19.8629 35.0454C18.6879 34.2644 18.1003 33.2078 18.1003 31.8756C18.1003 30.4975 18.7783 29.326 20.1341 28.3613C21.5351 27.3966 23.2977 26.9143 25.4218 26.9143C27.546 26.9143 29.3311 27.3507 30.7774 28.2235C32.2688 29.0964 33.0145 30.4286 33.0145 32.2202ZM25.2185 29.2571C23.1847 29.2571 22.1678 29.7165 22.1678 30.6353C22.1678 31.3244 22.5746 31.8986 23.3881 32.358C24.2016 32.8174 25.0377 33.0471 25.8964 33.0471C26.8003 33.0471 27.7041 33.0011 28.608 32.9092C28.5628 31.8067 28.2013 30.9339 27.5234 30.2908C26.8455 29.6017 26.0772 29.2571 25.2185 29.2571Z"
        fill="#04BFBF" />
    <path
        d="M39.8466 13.2706C39.8466 12.4437 40.2759 11.7317 41.1346 11.1345C41.9933 10.5373 42.7616 10.2387 43.4395 10.2387C44.6598 10.2387 45.2699 10.9507 45.2699 12.3748C45.2699 13.7989 44.9084 15.0392 44.1853 16.0958C43.4621 17.1064 42.4453 17.6118 41.1346 17.6118C40.2759 17.6118 39.8466 16.1647 39.8466 13.2706ZM41.8126 47.3109C40.05 47.3109 38.7167 46.9434 37.8129 46.2084C37.4965 45.8868 37.3383 44.7384 37.3383 42.763C37.3383 40.7877 37.4739 37.5031 37.7451 32.9092C38.0614 28.2695 38.3326 25.7658 38.5586 25.3983C38.7845 25.0308 39.485 24.3417 40.6601 23.3311C41.8351 22.3204 42.739 21.8151 43.3718 21.8151C44.0497 21.8151 44.3886 22.688 44.3886 24.4336C44.3886 24.893 44.253 25.7888 43.9819 27.121C43.7559 28.4532 43.4847 29.4179 43.1684 30.0151C42.5809 31.5311 42.2871 35.5048 42.2871 41.9361C42.2871 43.1765 42.4227 43.7966 42.6938 43.7966C43.4621 43.7507 44.5242 42.786 45.88 40.9025C47.2359 38.9731 48.5691 36.5154 49.8797 33.5294C51.2356 30.5434 52.0491 29.0504 52.3202 29.0504C52.6366 29.0504 52.7948 29.2342 52.7948 29.6017C52.7948 30.888 52.1395 32.9322 50.8288 35.7345C47.2585 43.4521 44.253 47.3109 41.8126 47.3109Z"
        fill="#04BFBF" />
    <path
        d="M54.4763 43.2454L54.5441 45.3815C54.5441 46.6678 54.1826 47.3109 53.4595 47.3109C52.3748 47.3109 51.3353 47.1731 50.341 46.8975C49.3468 46.5759 48.8496 46.1625 48.8496 45.6571C48.8496 45.1059 48.9626 43.2913 49.1886 40.2134C49.4598 37.0896 49.5953 34.7468 49.5953 33.1849V29.1193C49.5953 26.9143 49.8213 25.5821 50.2733 25.1227C50.7252 24.6633 51.5161 23.9972 52.646 23.1244C53.821 22.2515 54.6571 21.8151 55.1542 21.8151C55.6966 21.8151 56.0355 21.907 56.1711 22.0908C56.3067 22.2745 56.3745 22.619 56.3745 23.1244C56.3745 25.5591 55.9226 27.856 55.0187 30.0151C54.7927 32.6336 54.6797 34.4482 54.6797 35.4588C54.8605 35.1832 55.8096 33.6213 57.527 30.7731C59.2443 27.9249 60.6906 25.8347 61.8656 24.5025C63.0859 23.1703 64.1705 22.5042 65.1196 22.5042C66.0687 22.5042 66.9048 22.8258 67.6279 23.4689C68.3962 24.112 68.7803 24.916 68.7803 25.8807C68.7803 27.902 68.5544 30.888 68.1024 34.8387C67.6957 38.7434 67.4923 41.2241 67.4923 42.2807C67.4923 43.2913 67.6279 43.7966 67.8991 43.7966C68.6674 43.7507 69.7294 42.786 71.0853 40.9025C72.4411 38.9731 73.7743 36.5154 75.085 33.5294C76.4408 30.5434 77.2543 29.0504 77.5255 29.0504C77.8418 29.0504 78 29.2342 78 29.6017C78 30.888 77.3447 32.9322 76.034 35.7345C72.4637 43.4521 69.4583 47.3109 67.0178 47.3109C65.2552 47.3109 63.922 46.9434 63.0181 46.2084C62.7017 45.8868 62.5435 45.0599 62.5435 43.7277C62.5435 42.3496 62.6565 40.1445 62.8825 37.1126C63.1536 34.0347 63.2892 31.7378 63.2892 30.2218C63.2892 28.7059 63.0181 27.9479 62.4757 27.9479C61.9786 27.9479 60.6228 29.5328 58.4082 32.7025C56.1937 35.8263 55.0187 37.8246 54.8831 38.6975C54.6119 40.3053 54.4763 41.8213 54.4763 43.2454Z"
        fill="#04BFBF" />
    <path
        d="M97 47C100.314 47 103 45.8807 103 44.5C103 43.1193 100.314 42 97 42C93.6863 42 91 43.1193 91 44.5C91 45.8807 93.6863 47 97 47Z"
        fill="#04BFBF" />
</svg>